<svg width="38" height="37" viewBox="0 0 38 37" fill="none" xmlns="http://www.w3.org/2000/svg">
<path opacity="0.1" fill-rule="evenodd" clip-rule="evenodd" d="M19 36C28.665 36 36.5 28.165 36.5 18.5C36.5 8.83502 28.665 1 19 1C9.33502 1 1.5 8.83502 1.5 18.5C1.5 28.165 9.33502 36 19 36Z" stroke="#0A142F" stroke-width="1.5"/>
<path d="M20.5932 14.0206H22.2016C22.3495 14.0206 22.4696 13.9075 22.4696 13.768V12.2524C22.4696 12.113 22.3495 11.9998 22.2016 11.9998H20.5932C18.9677 11.9998 17.6445 13.2462 17.6445 14.7784V16.5466H15.7681C15.6201 16.5466 15.5 16.6598 15.5 16.7992V18.3148C15.5 18.4542 15.6201 18.5674 15.7681 18.5674H17.6445V23.872C17.6445 24.0114 17.7646 24.1245 17.9126 24.1245H19.5209C19.6689 24.1245 19.789 24.0114 19.789 23.872V18.5674H21.6655C21.7807 18.5674 21.8831 18.4977 21.9201 18.3946L22.4562 16.879C22.4836 16.8022 22.4696 16.7174 22.4192 16.6512C22.3683 16.5855 22.2879 16.5466 22.2016 16.5466H19.789V14.7784C19.789 14.3606 20.1498 14.0206 20.5932 14.0206Z" fill="#0A142F"/>
</svg>
