<svg width="38" height="37" viewBox="0 0 38 37" fill="none" xmlns="http://www.w3.org/2000/svg">
<path opacity="0.1" fill-rule="evenodd" clip-rule="evenodd" d="M19 36C28.665 36 36.5 28.165 36.5 18.5C36.5 8.83502 28.665 1 19 1C9.33502 1 1.5 8.83502 1.5 18.5C1.5 28.165 9.33502 36 19 36Z" stroke="#0A142F" stroke-width="1.5"/>
<path d="M14.9835 14.9671C15.8029 14.9671 16.4671 14.3029 16.4671 13.4835C16.4671 12.6642 15.8029 12 14.9835 12C14.1642 12 13.5 12.6642 13.5 13.4835C13.5 14.3029 14.1642 14.9671 14.9835 14.9671Z" fill="#0A142F"/>
<path d="M16.2198 15.9581H13.7473C13.6108 15.9581 13.5 16.0689 13.5 16.2054V23.6231C13.5 23.7596 13.6108 23.8704 13.7473 23.8704H16.2198C16.3563 23.8704 16.4671 23.7596 16.4671 23.6231V16.2054C16.4671 16.0689 16.3563 15.9581 16.2198 15.9581Z" fill="#0A142F"/>
<path d="M23.5883 15.5467C22.5315 15.1848 21.2097 15.5027 20.417 16.0729C20.3898 15.9666 20.2928 15.8875 20.1776 15.8875H17.705C17.5685 15.8875 17.4578 15.9982 17.4578 16.1347V23.5525C17.4578 23.6889 17.5685 23.7997 17.705 23.7997H20.1776C20.3141 23.7997 20.4249 23.6889 20.4249 23.5525V18.2216C20.8244 17.8774 21.3392 17.7676 21.7606 17.9466C22.169 18.1192 22.4029 18.5405 22.4029 19.1018V23.5525C22.4029 23.6889 22.5137 23.7997 22.6502 23.7997H25.1228C25.2593 23.7997 25.37 23.6889 25.37 23.5525V18.6038C25.3418 16.5719 24.3859 15.8197 23.5883 15.5467Z" fill="#0A142F"/>
</svg>
