<svg width="38" height="37" viewBox="0 0 38 37" fill="none" xmlns="http://www.w3.org/2000/svg">
<path opacity="0.1" fill-rule="evenodd" clip-rule="evenodd" d="M19 36C28.665 36 36.5 28.165 36.5 18.5C36.5 8.83502 28.665 1 19 1C9.33502 1 1.5 8.83502 1.5 18.5C1.5 28.165 9.33502 36 19 36Z" stroke="#0A142F" stroke-width="1.5"/>
<path d="M24.7202 15.2647C24.639 15.1729 24.5081 15.1498 24.4007 15.2064C24.3339 15.2416 24.2083 15.2878 24.0592 15.3334C24.2473 15.0762 24.3985 14.7882 24.4653 14.5293C24.4942 14.4177 24.452 14.3001 24.3601 14.2336C24.2682 14.1677 24.1458 14.1677 24.0539 14.2336C23.9091 14.3375 23.2102 14.6497 22.7683 14.7508C21.7696 13.8511 20.6074 13.7577 19.3992 14.4831C18.4171 15.0729 18.2034 16.2721 18.2451 17.0031C15.9971 16.7805 14.5998 15.5593 13.8132 14.5485C13.7582 14.4776 13.6695 14.4403 13.5861 14.4458C13.4985 14.4524 13.4194 14.5024 13.3745 14.5799C13.0026 15.2257 12.8995 15.9396 13.0774 16.6447C13.1747 17.0295 13.3446 17.3686 13.5418 17.6434C13.4472 17.5956 13.3558 17.5357 13.2698 17.4642C13.1907 17.3972 13.0801 17.3845 12.9866 17.429C12.8936 17.4747 12.8343 17.5714 12.8343 17.6775C12.8343 18.8882 13.5706 19.6962 14.2583 20.1183C14.1472 20.1045 14.0312 20.0792 13.9142 20.0424C13.8138 20.0111 13.7048 20.0424 13.6353 20.1238C13.5658 20.2046 13.5493 20.32 13.5926 20.4184C13.9789 21.2972 14.7109 21.9017 15.6166 22.121C14.8258 22.5986 13.7673 22.8328 12.798 22.7179C12.6724 22.6998 12.5527 22.7817 12.5132 22.9059C12.4736 23.0301 12.5255 23.1664 12.6361 23.2301C14.1066 24.0793 15.436 24.3827 16.5849 24.3827C18.2568 24.3827 19.5472 23.7407 20.3327 23.2038C22.4503 21.7583 23.7701 19.163 23.5863 16.841C23.9256 16.5832 24.4333 16.1072 24.748 15.5955C24.8132 15.4922 24.8014 15.3559 24.7202 15.2647Z" fill="#0A142F"/>
</svg>
